<svg width="420" height="120" viewBox="0 0 420 120" fill="none" xmlns="http://www.w3.org/2000/svg">
<rect x="0.5" y="0.5" width="419" height="119" rx="2.5" fill="#0B0B0B" stroke="#151515"/>
<path d="M167.945 70H164.451L172.302 48.1818H176.106L183.957 70H180.463L174.295 52.1449H174.124L167.945 70ZM168.531 61.456H179.866V64.2259H168.531V61.456ZM189.366 53.6364L192.978 60.0071L196.621 53.6364H200.105L195.002 61.8182L200.148 70H196.664L192.978 63.8849L189.303 70H185.808L190.901 61.8182L185.872 53.6364H189.366ZM203.376 70V53.6364H206.561V70H203.376ZM204.984 51.1115C204.43 51.1115 203.955 50.9268 203.557 50.5575C203.166 50.1811 202.971 49.7337 202.971 49.2152C202.971 48.6896 203.166 48.2422 203.557 47.8729C203.955 47.4964 204.43 47.3082 204.984 47.3082C205.538 47.3082 206.011 47.4964 206.401 47.8729C206.799 48.2422 206.998 48.6896 206.998 49.2152C206.998 49.7337 206.799 50.1811 206.401 50.5575C206.011 50.9268 205.538 51.1115 204.984 51.1115ZM217.739 70.3303C216.205 70.3303 214.866 69.9787 213.723 69.2756C212.579 68.5724 211.692 67.5888 211.059 66.3246C210.427 65.0604 210.111 63.5831 210.111 61.8928C210.111 60.1953 210.427 58.7109 211.059 57.4396C211.692 56.1683 212.579 55.1811 213.723 54.478C214.866 53.7749 216.205 53.4233 217.739 53.4233C219.273 53.4233 220.612 53.7749 221.756 54.478C222.899 55.1811 223.787 56.1683 224.419 57.4396C225.051 58.7109 225.367 60.1953 225.367 61.8928C225.367 63.5831 225.051 65.0604 224.419 66.3246C223.787 67.5888 222.899 68.5724 221.756 69.2756C220.612 69.9787 219.273 70.3303 217.739 70.3303ZM217.75 67.6562C218.744 67.6562 219.568 67.3935 220.221 66.8679C220.875 66.3423 221.358 65.6428 221.67 64.7692C221.99 63.8956 222.15 62.9332 222.15 61.8821C222.15 60.8381 221.99 59.8793 221.67 59.0057C221.358 58.125 220.875 57.4183 220.221 56.8857C219.568 56.353 218.744 56.0866 217.75 56.0866C216.748 56.0866 215.917 56.353 215.257 56.8857C214.604 57.4183 214.117 58.125 213.797 59.0057C213.485 59.8793 213.329 60.8381 213.329 61.8821C213.329 62.9332 213.485 63.8956 213.797 64.7692C214.117 65.6428 214.604 66.3423 215.257 66.8679C215.917 67.3935 216.748 67.6562 217.75 67.6562ZM228.923 70V53.6364H231.98V56.2997H232.183C232.523 55.3977 233.081 54.6946 233.855 54.1903C234.629 53.679 235.556 53.4233 236.636 53.4233C237.729 53.4233 238.646 53.679 239.384 54.1903C240.13 54.7017 240.68 55.4048 241.036 56.2997H241.206C241.597 55.4261 242.218 54.7301 243.07 54.2116C243.923 53.6861 244.938 53.4233 246.117 53.4233C247.602 53.4233 248.812 53.8885 249.75 54.8189C250.695 55.7493 251.167 57.152 251.167 59.027V70H247.982V59.3253C247.982 58.2173 247.68 57.4148 247.076 56.9176C246.472 56.4205 245.751 56.1719 244.913 56.1719C243.876 56.1719 243.07 56.4915 242.495 57.1307C241.92 57.7628 241.632 58.576 241.632 59.5703V70H238.457V59.1229C238.457 58.2351 238.18 57.5213 237.626 56.9815C237.072 56.4418 236.352 56.1719 235.464 56.1719C234.86 56.1719 234.303 56.3317 233.791 56.6513C233.287 56.9638 232.879 57.4006 232.566 57.9616C232.261 58.5227 232.108 59.1726 232.108 59.9112V70H228.923Z" fill="white"/>
</svg>
