<svg width="418" height="120" viewBox="0 0 418 120" fill="none" xmlns="http://www.w3.org/2000/svg">
<rect x="0.5" y="0.5" width="417" height="119" rx="2.5" fill="#0B0B0B" stroke="#151515"/>
<path d="M154.659 66.2842L144.752 76.2344L134.846 66.2842L138.496 62.6201L144.752 68.9043L151.008 62.6201L154.659 66.2842ZM265.646 50.791C268.991 50.791 270.99 51.911 272.635 53.5381L270.162 56.4121C268.785 55.1657 267.399 54.4044 265.628 54.4043C262.64 54.4043 260.486 56.8977 260.486 59.9492V60C260.486 63.0579 262.59 65.5957 265.628 65.5957C267.655 65.5956 268.896 64.7805 270.289 63.5117L272.768 66.0303H272.755C270.933 67.9873 268.909 69.2087 265.495 69.1992C260.278 69.1992 256.403 65.1544 256.403 60.041V59.9902C256.403 54.9372 260.202 50.791 265.646 50.791ZM176.439 51.0957C180.062 51.0957 182.291 52.9044 182.291 55.7021V55.7529C182.291 57.7605 181.224 58.8801 179.961 59.5938C182.017 60.3804 183.279 61.577 183.279 63.9688V64.0186H183.286C183.286 67.2762 180.649 68.9042 176.648 68.9043H168.216V51.0957H176.439ZM191.475 68.9043H187.562V51.0957H191.475V68.9043ZM208.578 62.0615V51.0957H212.44V68.9043H209.109L200.525 57.583V68.9043H196.676V51.0957H200.272L208.578 62.0615ZM234.044 68.9043H229.961L228.341 64.9102H220.844L219.218 68.9043H215.242L222.837 50.9688H226.434L234.044 68.9043ZM248.773 62.0615V51.0957H252.636V68.9043H249.304L240.717 57.583V68.9043H236.871V51.0957H240.465L248.773 62.0615ZM289.271 54.582H279.772V58.1797H288.131V61.6689H279.772V65.415H289.41V68.9043L275.897 68.9004V51.0928H289.271V54.582ZM172.016 65.4619H176.642C178.366 65.4619 179.405 64.853 179.405 63.5303L179.411 63.4863C179.411 62.2905 178.524 61.5508 176.521 61.5508H172.016V65.4619ZM135.895 60L132.24 63.667L128.59 60L132.24 56.333L135.895 60ZM148.403 60L144.752 63.667L141.102 60L144.752 56.333L148.403 60ZM160.915 60L157.268 63.667L153.617 60L157.268 56.333L160.915 60ZM222.23 61.4492H226.955L224.586 55.6768L222.23 61.4492ZM172.016 58.29H175.605C177.326 58.29 178.416 57.7288 178.416 56.4062L178.423 56.3613C178.423 55.1911 177.51 54.5314 175.865 54.5312H172.016V58.29ZM154.659 53.7158L151.008 57.3828L144.752 51.0957L138.496 57.3828L134.846 53.7158L144.752 43.7656L154.659 53.7158Z" fill="#D9D9D9"/>
</svg>
