<svg width="32" height="32" viewBox="0 0 32 32" fill="none" xmlns="http://www.w3.org/2000/svg">
  <defs>
    <radialGradient id="iridescentBg" cx="45%" cy="35%" r="80%">
      <stop offset="0%" style="stop-color:#1E1B4B;stop-opacity:1" />
      <stop offset="20%" style="stop-color:#312E81;stop-opacity:1" />
      <stop offset="40%" style="stop-color:#4C1D95;stop-opacity:1" />
      <stop offset="60%" style="stop-color:#5B21B6;stop-opacity:1" />
      <stop offset="80%" style="stop-color:#7C3AED;stop-opacity:1" />
      <stop offset="100%" style="stop-color:#A855F7;stop-opacity:1" />
    </radialGradient>
    <linearGradient id="swirl1" x1="0%" y1="0%" x2="100%" y2="100%">
      <stop offset="0%" style="stop-color:#0F172A;stop-opacity:0.8" />
      <stop offset="50%" style="stop-color:#1E293B;stop-opacity:0.6" />
      <stop offset="100%" style="stop-color:#334155;stop-opacity:0.4" />
    </linearGradient>
    <linearGradient id="swirl2" x1="100%" y1="0%" x2="0%" y2="100%">
      <stop offset="0%" style="stop-color:#0D9488;stop-opacity:0.7" />
      <stop offset="50%" style="stop-color:#14B8A6;stop-opacity:0.5" />
      <stop offset="100%" style="stop-color:#2DD4BF;stop-opacity:0.3" />
    </linearGradient>
  </defs>
  <rect width="32" height="32" rx="6" fill="url(#iridescentBg)"/>
  <!-- Swirl patterns for iridescent effect -->
  <ellipse cx="8" cy="12" rx="6" ry="4" fill="url(#swirl1)" opacity="0.6"/>
  <ellipse cx="24" cy="20" rx="5" ry="3" fill="url(#swirl2)" opacity="0.5"/>
  <ellipse cx="16" cy="8" rx="4" ry="6" fill="url(#swirl1)" opacity="0.4"/>
  <!-- White crown - exact design from image -->
  <g transform="translate(16,16) rotate(-5)">
    <!-- Crown base -->
    <rect x="-8" y="4" width="16" height="2" fill="white"/>
    <!-- Center spike (tallest) -->
    <path d="M-2 4 L-2 -6 L2 -6 L2 4 Z" fill="white"/>
    <!-- Left spikes -->
    <path d="M-6 4 L-6 -2 L-4 -2 L-4 4 Z" fill="white"/>
    <path d="M-8 4 L-8 0 L-6 0 L-6 4 Z" fill="white"/>
    <!-- Right spikes -->
    <path d="M4 4 L4 -2 L6 -2 L6 4 Z" fill="white"/>
    <path d="M6 4 L6 0 L8 0 L8 4 Z" fill="white"/>
    <!-- Crown jewels (small circles on spikes) -->
    <circle cx="-2" cy="-4" r="0.8" fill="white"/>
    <circle cx="-5" cy="-1" r="0.6" fill="white"/>
    <circle cx="5" cy="-1" r="0.6" fill="white"/>
  </g>
</svg>